HIERARCHY
ROOT hip
{
  OFFSET -1.30054 80.9391 -133.953
  CHANNELS 6 Xposition Yposition Zposition Zrotation Xrotation Yrotation
  JOINT abdomen
  {
    OFFSET 0 20.6881 -0.73152
    CHANNELS 3 Zrotation Xrotation Yrotation
    JOINT chest
    {
      OFFSET 0 11.7043 -0.48768
      CHANNELS 3 Zrotation Xrotation Yrotation
      JOINT neck
      {
        OFFSET 0 22.1894 -2.19456
        CHANNELS 3 Zrotation Xrotation Yrotation
        JOINT head
        {
          OFFSET -0.24384 7.07133 1.2192
          CHANNELS 3 Zrotation Xrotation Yrotation
          JOINT leftEye
          {
            OFFSET 4.14528 8.04674 8.04672
            CHANNELS 3 Zrotation Xrotation Yrotation
            End Site
            {
              OFFSET 1 0 0
            }
          }
          JOINT rightEye
          {
            OFFSET -3.6576 8.04674 8.04672
            CHANNELS 3 Zrotation Xrotation Yrotation
            End Site
            {
              OFFSET 1 0 0
            }
          }
        }
      }
      JOINT rCollar
      {
        OFFSET -2.68224 19.2634 -4.8768
        CHANNELS 3 Zrotation Xrotation Yrotation
        JOINT rShldr
        {
          OFFSET -8.77824 -1.95073 1.46304
          CHANNELS 3 Zrotation Xrotation Yrotation
          JOINT rForeArm
          {
            OFFSET -28.1742 -1.7115 0.48768
            CHANNELS 3 Zrotation Xrotation Yrotation
            JOINT rHand
            {
              OFFSET -22.5879 0.773209 7.07136
              CHANNELS 3 Zrotation Xrotation Yrotation
              JOINT rThumb1
              {
                OFFSET -1.2192 -0.487915 3.41376
                CHANNELS 3 Zrotation Xrotation Yrotation
                JOINT rThumb2
                {
                  OFFSET -3.37035 -0.52449 3.41376
                  CHANNELS 3 Zrotation Xrotation Yrotation
                  End Site
                  {
                    OFFSET -1.78271 -1.18214 1.43049
                  }
                }
              }
              JOINT rIndex1
              {
                OFFSET -7.75947 0.938293 5.60832
                CHANNELS 3 Zrotation Xrotation Yrotation
                JOINT rIndex2
                {
                  OFFSET -2.54057 -0.884171 1.56538
                  CHANNELS 3 Zrotation Xrotation Yrotation
                  End Site
                  {
                    OFFSET -1.62519 -0.234802 1.16502
                  }
                }
              }
              JOINT rMid1
              {
                OFFSET -8.24714 1.18213 3.41376
                CHANNELS 3 Zrotation Xrotation Yrotation
                JOINT rMid2
                {
                  OFFSET -3.10165 -0.590103 1.0647
                  CHANNELS 3 Zrotation Xrotation Yrotation
                  End Site
                  {
                    OFFSET -2.48547 -0.328903 0.83742
                  }
                }
              }
              JOINT rRing1
              {
                OFFSET -8.82822 0.546677 1.51678
                CHANNELS 3 Zrotation Xrotation Yrotation
                JOINT rRing2
                {
                  OFFSET -2.60934 -0.819778 -0.0198488
                  CHANNELS 3 Zrotation Xrotation Yrotation
                  End Site
                  {
                    OFFSET -2.33842 -0.294052 0.168128
                  }
                }
              }
              JOINT rPinky1
              {
                OFFSET -8.27202 -0.0477905 -0.4584
                CHANNELS 3 Zrotation Xrotation Yrotation
                JOINT rPinky2
                {
                  OFFSET -1.82734 -0.647385 -0.700984
                  CHANNELS 3 Zrotation Xrotation Yrotation
                  End Site
                  {
                    OFFSET -1.69225 -0.51767 -0.607171
                  }
                }
              }
            }
          }
        }
      }
      JOINT lCollar
      {
        OFFSET 2.68224 19.2634 -4.8768
        CHANNELS 3 Zrotation Xrotation Yrotation
        JOINT lShldr
        {
          OFFSET 8.77824 -1.95073 1.46304
          CHANNELS 3 Zrotation Xrotation Yrotation
          JOINT lForeArm
          {
            OFFSET 28.1742 -1.7115 0.48768
            CHANNELS 3 Zrotation Xrotation Yrotation
            JOINT lHand
            {
              OFFSET 22.5879 0.773209 7.07136
              CHANNELS 3 Zrotation Xrotation Yrotation
              JOINT lThumb1
              {
                OFFSET 1.2192 -0.487915 3.41376
                CHANNELS 3 Zrotation Xrotation Yrotation
                JOINT lThumb2
                {
                  OFFSET 3.37035 -0.52449 3.41376
                  CHANNELS 3 Zrotation Xrotation Yrotation
                  End Site
                  {
                    OFFSET 1.78271 -1.18214 1.43049
                  }
                }
              }
              JOINT lIndex1
              {
                OFFSET 7.75947 0.938293 5.60832
                CHANNELS 3 Zrotation Xrotation Yrotation
                JOINT lIndex2
                {
                  OFFSET 2.54057 -0.884171 1.56538
                  CHANNELS 3 Zrotation Xrotation Yrotation
                  End Site
                  {
                    OFFSET 1.62519 -0.234802 1.16502
                  }
                }
              }
              JOINT lMid1
              {
                OFFSET 8.24714 1.18213 3.41376
                CHANNELS 3 Zrotation Xrotation Yrotation
                JOINT lMid2
                {
                  OFFSET 3.10165 -0.590103 1.0647
                  CHANNELS 3 Zrotation Xrotation Yrotation
                  End Site
                  {
                    OFFSET 2.48547 -0.328903 0.83742
                  }
                }
              }
              JOINT lRing1
              {
                OFFSET 8.82822 0.546677 1.51678
                CHANNELS 3 Zrotation Xrotation Yrotation
                JOINT lRing2
                {
                  OFFSET 2.60934 -0.819778 -0.0198488
                  CHANNELS 3 Zrotation Xrotation Yrotation
                  End Site
                  {
                    OFFSET 2.33842 -0.294052 0.168128
                  }
                }
              }
              JOINT lPinky1
              {
                OFFSET 8.27202 -0.0477905 -0.4584
                CHANNELS 3 Zrotation Xrotation Yrotation
                JOINT lPinky2
                {
                  OFFSET 1.82734 -0.647385 -0.700984
                  CHANNELS 3 Zrotation Xrotation Yrotation
                  End Site
                  {
                    OFFSET 1.69225 -0.51767 -0.607171
                  }
                }
              }
            }
          }
        }
      }
    }
  }
  JOINT rButtock
  {
    OFFSET -8.77824 4.35084 1.2192
    CHANNELS 3 Zrotation Xrotation Yrotation
    JOINT rThigh
    {
      OFFSET 0 -1.70687 -2.19456
      CHANNELS 3 Zrotation Xrotation Yrotation
      JOINT rShin
      {
        OFFSET 0 -36.8199 0.73152
        CHANNELS 3 Zrotation Xrotation Yrotation
        JOINT rFoot
        {
          OFFSET 0.73152 -45.1104 -5.12064
          CHANNELS 3 Zrotation Xrotation Yrotation
          End Site
          {
            OFFSET -1.1221 -3.69964 12.103
          }
        }
      }
    }
  }
  JOINT lButtock
  {
    OFFSET 8.77824 4.35084 1.2192
    CHANNELS 3 Zrotation Xrotation Yrotation
    JOINT lThigh
    {
      OFFSET 0 -1.70687 -2.19456
      CHANNELS 3 Zrotation Xrotation Yrotation
      JOINT lShin
      {
        OFFSET 0 -36.8199 0.73152
        CHANNELS 3 Zrotation Xrotation Yrotation
        JOINT lFoot
        {
          OFFSET -0.73152 -45.1104 -5.12064
          CHANNELS 3 Zrotation Xrotation Yrotation
          End Site
          {
            OFFSET 1.1221 -3.69964 12.103
          }
        }
      }
    }
  }
}
MOTION
Frames:	6
Frame Time:	0.00833333
284.167 83.4871 99.8524 1.97634 0.00853148 -0.0377093 -2.59964 0.000365983 -0.0702748 -0.716703 0.01229 -0.12403 3.0098e-014 -7.95139e-016 -8.44835e-016 8.93444e-014 3.18055e-015 -2.68359e-015 -0 0 0 -0 0 0 1.4859e-014 1.19193e-016 -2.48481e-016 3.14499e-013 2.50344e-015 -8.15017e-015 5.38756e-012 -1.52229e-012 -2.03556e-013 6.1654e-011 2.05824e-012 -1.84154e-012 1.45426e-010 1.16164e-012 -4.44642e-012 2.51138e-010 2.01011e-012 -7.69217e-012 1.4543e-010 1.16289e-012 -4.45278e-012 7.73091 5.47488 0.417314 1.45426e-010 1.162e-012 -4.4496e-012 2.90554 0.965183 0.102902 1.45438e-010 1.162e-012 -4.44801e-012 10.2786 0.731801 0.0259123 1.45425e-010 1.1613e-012 -4.44323e-012 2.22167 -0.733487 -0.20892 1.47609e-014 1.17058e-016 -6.4605e-016 3.09873e-013 2.60284e-015 -9.74045e-015 5.38716e-012 1.69285e-012 -2.35361e-013 6.16332e-011 -1.14557e-012 -1.80019e-012 1.4539e-010 1.18472e-012 -4.4496e-012 2.51095e-010 2.0451e-012 -7.67309e-012 1.45385e-010 1.18754e-012 -4.43687e-012 -7.73091 5.47488 -0.417314 1.45389e-010 1.18456e-012 -4.4496e-012 -2.90554 0.965183 -0.102902 1.45387e-010 1.18476e-012 -4.44721e-012 -10.2786 0.731801 -0.0259123 1.45399e-010 1.18635e-012 -4.45278e-012 -2.22167 -0.733487 0.20892 -2.03217e-016 0 -3.88251e-019 -1.50089 -1.93106 0.00776932 -0.00872141 -2.07863 -0.0717132 -0.472626 3.99921 0.134505 2.03217e-016 0 3.88251e-019 -2.4505 -8.43846 0.261214 -0.00685647 9.70807 -0.175593 0.523279 -1.28001 -0.0328405 
278.406 82.5414 88.9069 1.16692 -1.29314 32.8955 -0.836921 1.14284 -1.00582 -0.749201 0.800422 -0.424282 0.0291355 4.1879 -0.585326 1.90183 -10.7199 -0.604839 -0 0 0 -0 0 0 3.7571e-014 2.23945e-015 -1.88021e-013 22.1177 3.81473 0.161661 -3.67988 -1.57736 5.84632 0.00151733 0.866045 0.121665 8.20248e-010 2.29528e-009 -1.01474e-009 1.41506e-009 3.97837e-009 -1.75889e-009 8.20253e-010 2.29528e-009 -1.01474e-009 7.73091 5.47488 0.417314 8.20248e-010 2.29528e-009 -1.01474e-009 2.90554 0.965183 0.102902 8.20259e-010 2.29528e-009 -1.01474e-009 10.2786 0.731801 0.0259123 8.20244e-010 2.29528e-009 -1.01473e-009 2.22167 -0.733487 -0.20892 3.7442e-014 2.23659e-015 -1.88363e-013 -22.4526 3.95261 -1.29922 4.26684 -1.94814 -6.65422 -0.0610176 -5.48403 0.758035 4.77055e-010 -7.51341e-010 -7.5951e-010 8.40157e-010 -1.30372e-009 -1.31107e-009 4.77052e-010 -7.51336e-010 -7.59501e-010 -7.73091 5.47488 -0.417314 4.77055e-010 -7.51338e-010 -7.59512e-010 -2.90554 0.965183 -0.102902 4.77051e-010 -7.51337e-010 -7.59509e-010 -10.2786 0.731801 -0.0259123 4.77063e-010 -7.51336e-010 -7.59515e-010 -2.22167 -0.733487 0.20892 -2.03217e-016 0 -3.88251e-019 0.451486 -4.1451 0.0345495 0.0318792 7.30258 0.123013 -1.09116 -2.88436 -4.21565 2.03217e-016 0 3.88251e-019 -0.308925 -8.76215 2.17039 -0.00923972 15.9495 -0.263207 0.661804 -6.14228 0.897269 
278.415 82.5396 88.8987 1.53141 -1.20719 67.7165 1.07045 2.35097 -1.99478 -0.778766 1.63779 -0.741415 0.153505 8.61449 -1.21634 3.65559 -22.0548 -1.32017 -0 0 0 -0 0 0 6.31786e-014 8.23311e-016 -3.91295e-013 45.4798 7.83429 0.334808 -7.2172 -3.18695 12.0333 -0.000890913 1.78832 0.251324 1.5623e-009 4.82347e-009 -2.12125e-009 2.69496e-009 8.36047e-009 -3.6769e-009 1.5623e-009 4.82347e-009 -2.12126e-009 7.73091 5.47488 0.417314 1.5623e-009 4.82347e-009 -2.12125e-009 2.90554 0.965183 0.102902 1.56231e-009 4.82347e-009 -2.12125e-009 10.2786 0.731801 0.0259123 1.56229e-009 4.82347e-009 -2.12124e-009 2.22167 -0.733487 -0.20892 6.30134e-014 8.1949e-016 -3.91578e-013 -45.9899 8.11975 -2.69333 8.28667 -3.9183 -13.7096 0.0350647 -11.2765 1.58259 8.45669e-010 -1.57725e-009 -1.60129e-009 1.49487e-009 -2.73685e-009 -2.7642e-009 8.45668e-010 -1.57724e-009 -1.60129e-009 -7.73091 5.47488 -0.417314 8.4567e-010 -1.57724e-009 -1.6013e-009 -2.90554 0.965183 -0.102902 8.45663e-010 -1.57724e-009 -1.6013e-009 -10.2786 0.731801 -0.0259123 8.45676e-010 -1.57724e-009 -1.6013e-009 -2.22167 -0.733487 0.20892 -2.03217e-016 0 -3.88251e-019 2.51924 -6.48252 0.0606367 0.00294653 17.2186 0.342095 -2.89226 -10.0576 -8.94356 2.03217e-016 0 3.88251e-019 1.98074 -9.09267 4.19053 0.010972 22.5489 -0.365581 0.981993 -11.2774 1.9024 
278.433 82.5343 88.8895 1.62262 0.703322 98.7054 2.80057 3.42399 -2.88147 -0.789396 2.37637 -1.02555 0.349416 12.5584 -1.79423 4.92229 -32.1442 -2.10575 -0 0 0 -0 0 0 8.29951e-014 6.47998e-015 -5.63565e-013 66.2874 11.4438 0.493723 -10.0882 -4.53536 17.5892 -0.00649161 2.59809 0.365328 2.16989e-009 6.88352e-009 -3.03531e-009 3.7429e-009 1.19311e-008 -5.26128e-009 2.1699e-009 6.88352e-009 -3.03533e-009 7.73091 5.47488 0.417314 2.16989e-009 6.88352e-009 -3.03532e-009 2.90554 0.965183 0.102902 2.1699e-009 6.88352e-009 -3.03531e-009 10.2786 0.731801 0.0259123 2.16988e-009 6.88351e-009 -3.0353e-009 2.22167 -0.733487 -0.20892 8.28042e-014 6.47565e-015 -5.63796e-013 -66.8107 11.8332 -3.97296 11.4682 -5.52976 -20.0484 0.267938 -16.4403 2.36025 1.14038e-009 -2.25639e-009 -2.26963e-009 2.01828e-009 -3.91526e-009 -3.91788e-009 1.14039e-009 -2.25638e-009 -2.26963e-009 -7.73091 5.47488 -0.417314 1.14039e-009 -2.25638e-009 -2.26964e-009 -2.90554 0.965183 -0.102902 1.14038e-009 -2.25638e-009 -2.26963e-009 -10.2786 0.731801 -0.0259123 1.14039e-009 -2.25638e-009 -2.26964e-009 -2.22167 -0.733487 0.20892 -2.03217e-016 0 -3.88251e-019 4.36251 -8.57318 0.0888403 -0.0943647 26.0639 0.567045 -5.53501 -16.2423 -13.4454 2.03217e-016 0 3.88251e-019 4.03945 -9.37723 5.99883 0.0518793 28.432 -0.469725 1.42849 -15.8504 2.85048 
278.44 82.5313 88.8887 0.833801 2.84647 120.282 4.00844 4.16281 -3.50818 -0.770347 2.86829 -1.22645 0.536003 15.3007 -2.20261 5.5566 -39.1345 -2.79445 -0 0 0 -0 0 0 8.83336e-014 2.98187e-014 -6.58325e-013 80.7551 14.0286 0.608903 -11.9535 -5.4161 21.52 -0.0120047 3.12664 0.439862 2.44136e-009 7.7732e-009 -3.46828e-009 4.21093e-009 1.3473e-008 -6.01153e-009 2.44137e-009 7.7732e-009 -3.4683e-009 7.73091 5.47488 0.417314 2.44136e-009 7.7732e-009 -3.46829e-009 2.90554 0.965183 0.102902 2.44137e-009 7.7732e-009 -3.46828e-009 10.2786 0.731801 0.0259123 2.44135e-009 7.7732e-009 -3.46827e-009 2.22167 -0.733487 -0.20892 8.81433e-014 2.9815e-014 -6.58524e-013 -81.2287 14.4357 -4.89516 13.4804 -6.54276 -24.5144 0.519486 -20.0433 2.93902 1.25035e-009 -2.56862e-009 -2.50434e-009 2.21346e-009 -4.45688e-009 -4.32293e-009 1.25036e-009 -2.56861e-009 -2.50435e-009 -7.73091 5.47488 -0.417314 1.25036e-009 -2.56861e-009 -2.50435e-009 -2.90554 0.965183 -0.102902 1.25035e-009 -2.56861e-009 -2.50435e-009 -10.2786 0.731801 -0.0259123 1.25036e-009 -2.5686e-009 -2.50436e-009 -2.22167 -0.733487 0.20892 -2.03217e-016 0 -3.88251e-019 5.64104 -10.0469 0.121836 -0.21142 32.2335 0.752659 -7.98708 -20.3636 -16.8218 2.03217e-016 0 3.88251e-019 5.47527 -9.57065 7.27042 0.0954142 32.5251 -0.552317 1.84345 -19.0334 3.57091 
278.451 82.5281 88.9061 0.238356 3.75445 128.79 4.44957 4.43409 -3.76961 -0.712962 3.01 -1.31097 0.620351 16.3651 -2.34566 5.67261 -41.7889 -3.09276 -0 0 0 -0 0 0 7.43658e-014 8.20864e-014 -6.53287e-013 86.3666 15.1817 0.650373 -12.6902 -5.76949 23.1452 -0.0139121 3.26317 0.459141 2.19422e-009 6.91723e-009 -3.20345e-009 3.78412e-009 1.19886e-008 -5.55174e-009 2.19423e-009 6.91722e-009 -3.20347e-009 7.73091 5.47488 0.417314 2.19422e-009 6.91722e-009 -3.20345e-009 2.90554 0.965183 0.102902 2.19423e-009 6.91722e-009 -3.20345e-009 10.2786 0.731801 0.0259123 2.19421e-009 6.91722e-009 -3.20344e-009 2.22167 -0.733487 -0.20892 7.42232e-014 8.20856e-014 -6.53483e-013 -86.867 15.499 -5.2615 14.2433 -6.92414 -26.3139 0.640418 -21.4693 3.17846 1.04528e-009 -2.34093e-009 -2.04612e-009 1.85e-009 -4.06134e-009 -3.53199e-009 1.04528e-009 -2.34092e-009 -2.04613e-009 -7.73091 5.47488 -0.417314 1.04528e-009 -2.34092e-009 -2.04613e-009 -2.90554 0.965183 -0.102902 1.04527e-009 -2.34092e-009 -2.04613e-009 -10.2786 0.731801 -0.0259123 1.04529e-009 -2.34092e-009 -2.04614e-009 -2.22167 -0.733487 0.20892 -2.03217e-016 0 -3.88251e-019 6.1291 -10.6572 0.163554 -0.270746 34.6573 0.834591 -9.07715 -21.9121 -18.1901 2.03217e-016 0 3.88251e-019 6.0193 -9.64825 7.78596 0.11598 34.1121 -0.587449 2.04907 -20.2827 3.91526 
